HIERARCHY
ROOT Hips
{
	OFFSET 0.000000 0.000000 0.000000 
	CHANNELS 6 Xposition Yposition Zposition Zrotation Yrotation Xrotation
	JOINT LeftUpLeg
	{
		OFFSET 1.363060 -1.794630 0.839290 
		CHANNELS 3 Zrotation Yrotation Xrotation
		JOINT LeftLeg
		{
			OFFSET 2.448110 -6.726130 0.000000 
			CHANNELS 3 Zrotation Yrotation Xrotation
			JOINT LeftFoot
			{
				OFFSET 2.562200 -7.039590 0.000000 
				CHANNELS 3 Zrotation Yrotation Xrotation
				JOINT LeftToeBase
				{
					OFFSET 0.157640 -0.433110 2.322550 
					CHANNELS 3 Zrotation Yrotation Xrotation
					End Site
					{
						OFFSET 0.000000 0.000000 0.000000 
					}
				}
			}
		}
	}
	JOINT RightUpLeg
	{
		OFFSET -1.305520 -1.794630 0.839290 
		CHANNELS 3 Zrotation Yrotation Xrotation
		JOINT RightLeg
		{
			OFFSET -2.542530 -6.985550 0.000000 
			CHANNELS 3 Zrotation Yrotation Xrotation
			JOINT RightFoot
			{
				OFFSET -2.568260 -7.056230 0.000000 
				CHANNELS 3 Zrotation Yrotation Xrotation
				JOINT RightToeBase
				{
					OFFSET -0.164730 -0.452590 2.363150 
					CHANNELS 3 Zrotation Yrotation Xrotation
					End Site
					{
						OFFSET 0.000000 0.000000 0.000000 
					}
				}
			}
		}
	}
	JOINT Spine
	{
		OFFSET 0.028270 2.035590 -0.193380 
		CHANNELS 3 Zrotation Yrotation Xrotation
		JOINT Spine1
		{
			OFFSET 0.056720 2.048850 -0.042750 
			CHANNELS 3 Zrotation Yrotation Xrotation
			JOINT Neck1
			{
				OFFSET -0.054170 1.746240 0.172020 
				CHANNELS 3 Zrotation Yrotation Xrotation
				JOINT Head
				{
					OFFSET 0.104070 1.761360 -0.123970 
					CHANNELS 3 Zrotation Yrotation Xrotation
					End Site
					{
						OFFSET 0.000000 0.000000 0.000000 
					}
				}
			}
			JOINT LeftArm
			{
				OFFSET 3.362410 1.200890 -0.311210 
				CHANNELS 3 Zrotation Yrotation Xrotation
				JOINT LeftForeArm
				{
					OFFSET 4.983000 -0.000000 -0.000000 
					CHANNELS 3 Zrotation Yrotation Xrotation
					JOINT LeftHand
					{
						OFFSET 3.483560 -0.000000 -0.000000 
						CHANNELS 3 Zrotation Yrotation Xrotation
						JOINT LeftHandIndex1
						{
							OFFSET 0.715260 -0.000000 -0.000000 
							CHANNELS 3 Zrotation Yrotation Xrotation
							End Site
							{
								OFFSET 0.000000 0.000000 0.000000 
							}
						}
					}
				}
			}
			JOINT RightArm
			{
				OFFSET -3.136600 1.374050 -0.404650 
				CHANNELS 3 Zrotation Yrotation Xrotation
				JOINT RightForeArm
				{
					OFFSET -5.241900 -0.000000 -0.000000 
					CHANNELS 3 Zrotation Yrotation Xrotation
					JOINT RightHand
					{
						OFFSET -3.444170 -0.000000 -0.000000 
						CHANNELS 3 Zrotation Yrotation Xrotation
						JOINT RightHandIndex1
						{
							OFFSET -0.622530 -0.000000 -0.000000 
							CHANNELS 3 Zrotation Yrotation Xrotation
							End Site
							{
								OFFSET 0.000000 0.000000 0.000000 
							}
						}
					}
				}
			}
		}
	}
}
MOTION
Frames: 15
Frame Time: 0.041667
-29.210604 17.476071 0.988031 12.350959 85.858286 10.353128 -12.782483 5.183660 4.880538 -0.975475 4.901601 13.714173 -0.016441 4.802095 -13.533894 0.569100 -4.831500 -13.428600 18.936350 -16.584227 17.336587 -0.364340 -2.797236 2.140806 -0.344084 -4.076373 -16.650337 -0.277500 -3.388100 9.361300 0.656859 1.281295 -1.991590 -2.374912 0.253419 2.239873 5.415183 3.071648 11.313247 -0.283900 1.931500 12.251900 -91.943788 -5.054349 47.596435 13.005244 -22.763087 -2.859469 -0.211839 0.676218 10.583468 -7.125000 0.000000 0.000000 90.397516 2.124818 35.438663 -17.255739 32.002167 -4.452142 0.196074 -2.838134 9.641576 7.125000 0.000000 0.000000 
-29.212137 17.474947 0.989053 11.262056 85.829062 9.301603 -12.629326 5.211307 4.840362 -0.971209 4.893615 13.703116 -0.022202 4.819785 -13.494378 0.553200 -4.764500 -13.238200 19.045545 -16.642564 17.224774 -0.368294 -2.819274 2.192847 -0.352398 -3.856496 -16.590435 -0.272100 -3.355300 9.269600 0.659667 1.300965 -1.983254 -2.407951 0.263895 2.281918 5.463372 3.008283 11.250348 -0.253500 1.902800 12.182700 -91.928728 -5.142130 47.522612 13.009864 -22.770819 -2.862353 -0.199628 0.681524 10.466669 -7.125000 0.000000 0.000000 90.431171 2.169770 35.377537 -17.209704 31.964937 -4.434114 0.198157 -2.836321 9.667462 7.125000 0.000000 0.000000 
-29.211932 17.474027 0.988031 12.176747 85.803468 10.251463 -12.758629 5.213055 4.824132 -0.977878 4.890987 13.682582 -0.024387 4.840438 -13.501237 0.454400 -4.324400 -11.991000 18.919289 -16.599185 17.234485 -0.371435 -2.800620 2.149419 -0.353967 -3.852503 -16.608575 -0.236500 -3.129800 8.640400 0.650823 1.290239 -1.971636 -2.380476 0.256233 2.358733 5.437976 3.007119 11.225875 -0.268200 1.896400 12.158300 -91.910107 -5.256136 47.644510 13.042928 -22.820513 -2.874906 -0.198480 0.678693 10.147012 -7.125000 0.000000 0.000000 90.414056 2.255340 35.408745 -17.176413 31.930853 -4.419099 0.204646 -2.835145 9.616522 7.125000 0.000000 0.000000 
-29.212341 17.475254 0.986498 11.989109 85.804060 10.077635 -12.753205 5.174426 4.804857 -0.976420 4.904807 13.718164 -0.025663 4.863081 -13.530777 0.554300 -4.769300 -13.251800 19.039757 -16.432826 17.247046 -0.369738 -2.799382 2.153759 -0.343779 -4.089413 -16.648853 -0.204300 -2.910700 8.030100 0.656763 1.272974 -1.972542 -2.366946 0.247541 2.363843 5.386435 3.012990 11.221722 -0.304300 1.894900 12.166200 -91.915875 -5.314586 47.754115 13.109423 -22.910438 -2.899011 -0.195116 0.668382 9.914303 -7.125000 0.000000 0.000000 90.347537 2.265715 35.604974 -17.245722 31.994321 -4.438707 0.204959 -2.830148 9.339846 7.125000 0.000000 0.000000 
-29.214283 17.477298 0.985680 10.882865 85.754493 8.949742 -12.680494 5.052014 4.928458 -0.989100 4.871904 13.630341 -0.043339 5.022877 -13.603034 0.566600 -4.821100 -13.399100 19.269854 -16.263038 17.260810 -0.368602 -2.810670 2.190538 -0.339910 -4.212174 -16.704407 -0.207700 -2.934600 8.096600 0.661639 1.289605 -1.967870 -2.402171 0.257699 2.367091 5.405057 2.996412 11.250527 -0.290000 1.890400 12.202600 -91.948288 -5.402112 47.621409 13.124396 -22.925513 -2.904609 -0.185711 0.664010 9.818994 -7.125000 0.000000 0.000000 90.313425 2.232519 35.737911 -17.351752 32.107473 -4.476202 0.202199 -2.828170 9.101314 7.125000 0.000000 0.000000 
-29.214692 17.477400 0.985067 11.531549 85.728224 9.532756 -12.824200 4.976038 5.128860 -1.012657 4.817157 13.471010 -0.060763 5.172857 -13.645819 0.556900 -4.780000 -13.282200 19.098963 -16.380055 17.343226 -0.367276 -2.803058 2.167336 -0.339912 -4.138176 -16.628040 -0.219400 -3.015400 8.321600 0.655380 1.291265 -1.955149 -2.375313 0.255994 2.402387 5.399748 2.986960 11.314730 -0.292100 1.888400 12.248100 -91.977494 -5.441797 47.522418 13.121759 -22.925040 -2.904638 -0.183418 0.665844 9.832562 -7.125000 0.000000 0.000000 90.289178 2.202315 35.753978 -17.401779 32.159279 -4.495304 0.202187 -2.828010 9.059135 7.125000 0.000000 0.000000 
-29.214692 17.476378 0.984351 12.308169 85.788610 10.238476 -12.863440 5.118344 5.111436 -0.999451 4.841865 13.542761 -0.048083 5.041795 -13.553011 0.538000 -4.699900 -13.054500 18.902075 -16.580959 17.444217 -0.364438 -2.785599 2.109509 -0.336285 -4.068786 -16.492307 -0.219000 -3.012800 8.314500 0.656483 1.236310 -1.951674 -2.337647 0.225604 2.403967 5.373184 3.003250 11.362181 -0.311500 1.897000 12.283100 -91.978609 -5.411271 47.478442 13.151039 -22.969209 -2.916523 -0.183267 0.665605 9.866576 -7.125000 0.000000 0.000000 90.276247 2.187936 35.843962 -17.413701 32.164956 -4.497741 0.185465 -2.819884 9.003867 7.125000 0.000000 0.000000 
-29.216737 17.474947 0.984556 11.542670 85.826551 9.461106 -12.702638 5.216015 4.995450 -0.975680 4.885363 13.677808 -0.025964 4.861931 -13.514528 0.510400 -4.579300 -12.712400 19.035262 -16.554921 17.441221 -0.363909 -2.784986 2.105648 -0.339708 -4.055121 -16.554402 -0.227800 -3.072000 8.479400 0.676748 1.183203 -1.960333 -2.301642 0.197539 2.361529 5.379313 3.056893 11.342495 -0.297700 1.917200 12.260700 -92.037369 -5.397546 47.341756 13.147575 -22.965716 -2.915789 -0.178291 0.663861 9.944302 -7.125000 0.000000 0.000000 90.246105 2.151284 35.917536 -17.396018 32.132363 -4.485135 0.169544 -2.805637 9.065230 7.125000 0.000000 0.000000 
-29.218679 17.473618 0.984760 11.243046 85.828406 9.211680 -12.723074 5.035431 5.023954 -0.990946 4.861057 13.603984 -0.031983 4.946662 -13.603897 0.509400 -4.575200 -12.700700 19.192734 -16.348719 17.439628 -0.365646 -2.763777 2.056606 -0.340475 -4.188646 -16.710041 -0.235500 -3.123100 8.621500 0.672296 1.192443 -1.956566 -2.350356 0.204460 2.401699 5.397358 3.053492 11.300038 -0.293200 1.918100 12.230200 -91.994712 -5.514876 47.470454 13.101539 -22.900085 -2.897244 -0.177220 0.663695 9.866945 -7.125000 0.000000 0.000000 90.308104 2.215734 35.612575 -17.297981 32.035604 -4.443958 0.193974 -2.804243 9.124937 7.125000 0.000000 0.000000 
-29.218168 17.474538 0.982716 12.157928 85.803395 10.089111 -12.921870 4.904139 5.198607 -1.016974 4.811112 13.451213 -0.040528 5.053239 -13.683634 0.501400 -4.539400 -12.599400 19.057166 -16.324125 17.527677 -0.364757 -2.747045 2.018004 -0.336972 -4.264612 -16.719191 -0.215100 -2.985900 8.239600 0.644857 1.239668 -1.956296 -2.428874 0.233868 2.380629 5.411381 3.018416 11.274675 -0.302000 1.910900 12.203300 -91.873689 -5.570303 47.851455 13.085669 -22.870097 -2.888324 -0.181318 0.660692 9.623771 -7.125000 0.000000 0.000000 90.381685 2.170047 35.578812 -17.259202 32.021130 -4.455572 0.179934 -2.835767 9.447490 7.125000 0.000000 0.000000 
-29.219088 17.474129 0.982307 12.622840 85.717207 10.468072 -12.938782 5.127506 5.206001 -1.002676 4.831085 13.506671 -0.026907 4.920397 -13.600288 0.507900 -4.568400 -12.681600 18.937728 -16.327006 17.621710 -0.362908 -2.753777 2.043144 -0.336121 -4.268399 -16.701936 -0.202800 -2.899500 7.999000 0.638134 1.287427 -1.933482 -2.418741 0.256700 2.428537 5.384244 3.012194 11.284808 -0.322200 1.906300 12.219000 -91.860914 -5.641630 48.001410 13.087749 -22.873488 -2.888410 -0.185874 0.658394 9.525289 -7.125000 0.000000 0.000000 90.387283 2.200274 35.454038 -17.170216 31.928394 -4.430097 0.166378 -2.836536 9.736667 7.125000 0.000000 0.000000 
-29.222154 17.470654 0.983125 12.337224 85.680882 10.224123 -12.827976 5.295388 5.017273 -0.979578 4.881182 13.649917 -0.021975 4.831138 -13.500063 0.542500 -4.719000 -13.108900 18.999541 -16.257305 17.592874 -0.366941 -2.744710 2.020819 -0.336638 -4.225712 -16.665727 -0.236200 -3.127600 8.634200 0.646897 1.294704 -1.918161 -2.367026 0.256487 2.518000 5.379201 3.020835 11.290156 -0.314000 1.903500 12.224000 -91.920682 -5.722992 47.878005 13.058937 -22.840479 -2.878938 -0.189629 0.663264 9.653062 -7.125000 0.000000 0.000000 90.327221 2.170253 35.652643 -17.274960 32.036348 -4.464385 0.157203 -2.827291 9.685270 7.125000 0.000000 0.000000 
-29.223687 17.467281 0.982409 12.397108 85.701619 10.349677 -12.876329 5.136710 5.031864 -0.996909 4.855115 13.572801 -0.042724 5.010613 -13.570074 0.547300 -4.739300 -13.166400 18.922027 -16.383669 17.477731 -0.371977 -2.751046 2.030701 -0.342855 -4.008044 -16.556154 -0.263900 -3.304800 9.128600 0.642635 1.284115 -1.929227 -2.371483 0.252094 2.509353 5.432883 3.017823 11.250905 -0.270200 1.901500 12.171000 -91.938254 -5.693964 47.752191 13.024537 -22.794177 -2.866667 -0.192359 0.668014 9.813236 -7.125000 0.000000 0.000000 90.320187 2.068398 35.612753 -17.334271 32.089512 -4.466275 0.172186 -2.804751 9.458137 7.125000 0.000000 0.000000 
-29.224403 17.466156 0.980876 12.601023 85.705120 10.552785 -12.967492 4.996910 5.149586 -1.017378 4.817504 13.462082 -0.067132 5.205724 -13.611725 0.549900 -4.750700 -13.198800 18.834282 -16.492608 17.418978 -0.371261 -2.778603 2.101049 -0.341469 -3.951201 -16.462814 -0.239300 -3.148100 8.691500 0.632642 1.291175 -1.934206 -2.403326 0.257667 2.492731 5.475906 3.006990 11.237605 -0.240200 1.899500 12.158000 -91.930648 -5.656446 47.624519 13.012475 -22.775728 -2.862768 -0.192876 0.671307 10.042337 -7.125000 0.000000 0.000000 90.349242 2.014573 35.534470 -17.351635 32.115396 -4.475436 0.185329 -2.813251 9.572846 7.125000 0.000000 0.000000 
-29.225629 17.468405 0.979241 12.030267 85.640287 9.948795 -12.864063 5.208576 5.099565 -0.999971 4.838687 13.527470 -0.064022 5.131015 -13.503013 0.556800 -4.779800 -13.281700 18.867630 -16.556599 17.372620 -0.366842 -2.822731 2.216634 -0.334689 -4.016127 -16.391892 -0.204600 -2.912700 8.035800 0.633428 1.323735 -1.927772 -2.422338 0.273882 2.502059 5.511033 3.011336 11.275145 -0.208600 1.903400 12.200000 -91.905095 -5.667968 47.643068 13.037451 -22.805805 -2.871530 -0.200519 0.666031 10.126185 -7.125000 0.000000 0.000000 90.363852 2.009935 35.555907 -17.378076 32.155484 -4.498017 0.172692 -2.825664 9.627837 7.125000 0.000000 0.000000 
